<svg width="128" height="128" viewBox="0 0 128 128" fill="none" xmlns="http://www.w3.org/2000/svg">
<g clip-path="url(#clip0_117_533)">
<path d="M128 0H0V128H128V0Z" fill="white"/>
<path d="M128 0H0V128H128V0Z" fill="url(#paint0_linear_117_533)"/>
<path opacity="0.3" d="M61.8361 -74.6863L-75.7295 62.8793L-5.52276 133.086L132.043 -4.47957L61.8361 -74.6863Z" fill="url(#paint1_linear_117_533)"/>
<path opacity="0.3" d="M41.5332 -94.9891L-96.0325 42.5765L-23.6247 114.984L113.941 -22.5814L41.5332 -94.9891Z" fill="url(#paint2_linear_117_533)"/>
<path opacity="0.3" d="M41.5332 -94.9891L-96.0325 42.5765L-41.7267 96.8823L95.839 -40.6833L41.5332 -94.9891Z" fill="url(#paint3_linear_117_533)"/>
</g>
<defs>
<linearGradient id="paint0_linear_117_533" x1="128" y1="128" x2="0" y2="0" gradientUnits="userSpaceOnUse">
<stop stop-color="#4FA0FF"/>
<stop offset="1" stop-color="#83F8FF"/>
</linearGradient>
<linearGradient id="paint1_linear_117_533" x1="132.043" y1="-4.47941" x2="-43.5574" y2="-57.7987" gradientUnits="userSpaceOnUse">
<stop stop-color="white" stop-opacity="0.6"/>
<stop offset="1" stop-color="white" stop-opacity="0"/>
</linearGradient>
<linearGradient id="paint2_linear_117_533" x1="113.941" y1="-22.5814" x2="-66.5892" y2="-74.8563" gradientUnits="userSpaceOnUse">
<stop stop-color="white" stop-opacity="0.6"/>
<stop offset="1" stop-color="white" stop-opacity="0"/>
</linearGradient>
<linearGradient id="paint3_linear_117_533" x1="95.8391" y1="-40.6834" x2="-41.5277" y2="-97.724" gradientUnits="userSpaceOnUse">
<stop stop-color="white" stop-opacity="0.6"/>
<stop offset="1" stop-color="white" stop-opacity="0"/>
</linearGradient>
<clipPath id="clip0_117_533">
<rect width="128" height="128" fill="white"/>
</clipPath>
</defs>
</svg>
