<svg width="25" height="24" viewBox="0 0 25 24" fill="none" xmlns="http://www.w3.org/2000/svg">
<path d="M8.1665 5.25C8.03265 5.25 7.9165 5.13386 7.9165 5V2C7.9165 1.86614 8.03265 1.75 8.1665 1.75C8.30036 1.75 8.4165 1.86614 8.4165 2V5C8.4165 5.13386 8.30036 5.25 8.1665 5.25Z" fill="#4B5563" stroke="#4B5563"/>
<path d="M16.1665 5.75C15.7565 5.75 15.4165 5.41 15.4165 5V2C15.4165 1.59 15.7565 1.25 16.1665 1.25C16.5765 1.25 16.9165 1.59 16.9165 2V5C16.9165 5.41 16.5765 5.75 16.1665 5.75Z" fill="#4B5563"/>
<path d="M8.6665 14.5C8.5365 14.5 8.4065 14.47 8.2865 14.42C8.1565 14.37 8.0565 14.3 7.9565 14.21C7.7765 14.02 7.6665 13.77 7.6665 13.5C7.6665 13.37 7.69651 13.24 7.74651 13.12C7.79651 13 7.8665 12.89 7.9565 12.79C8.0565 12.7 8.1565 12.63 8.2865 12.58C8.6465 12.43 9.0965 12.51 9.3765 12.79C9.5565 12.98 9.6665 13.24 9.6665 13.5C9.6665 13.56 9.6565 13.63 9.6465 13.7C9.6365 13.76 9.6165 13.82 9.5865 13.88C9.5665 13.94 9.53651 14 9.49651 14.06C9.46651 14.11 9.4165 14.16 9.3765 14.21C9.1865 14.39 8.9265 14.5 8.6665 14.5Z" fill="#4B5563"/>
<path d="M12.1665 14.5C12.0365 14.5 11.9065 14.47 11.7865 14.42C11.6565 14.37 11.5565 14.3 11.4565 14.21C11.2765 14.02 11.1665 13.77 11.1665 13.5C11.1665 13.37 11.1965 13.24 11.2465 13.12C11.2965 13 11.3665 12.89 11.4565 12.79C11.5565 12.7 11.6565 12.63 11.7865 12.58C12.1465 12.42 12.5965 12.51 12.8765 12.79C13.0565 12.98 13.1665 13.24 13.1665 13.5C13.1665 13.56 13.1565 13.63 13.1465 13.7C13.1365 13.76 13.1165 13.82 13.0865 13.88C13.0665 13.94 13.0365 14 12.9965 14.06C12.9665 14.11 12.9165 14.16 12.8765 14.21C12.6865 14.39 12.4265 14.5 12.1665 14.5Z" fill="#4B5563"/>
<path d="M15.6665 14.5C15.5365 14.5 15.4065 14.47 15.2865 14.42C15.1565 14.37 15.0565 14.3 14.9565 14.21C14.9165 14.16 14.8765 14.11 14.8365 14.06C14.7965 14 14.7665 13.94 14.7465 13.88C14.7165 13.82 14.6965 13.76 14.6865 13.7C14.6765 13.63 14.6665 13.56 14.6665 13.5C14.6665 13.24 14.7765 12.98 14.9565 12.79C15.0565 12.7 15.1565 12.63 15.2865 12.58C15.6565 12.42 16.0965 12.51 16.3765 12.79C16.5565 12.98 16.6665 13.24 16.6665 13.5C16.6665 13.56 16.6565 13.63 16.6465 13.7C16.6365 13.76 16.6165 13.82 16.5865 13.88C16.5665 13.94 16.5365 14 16.4965 14.06C16.4665 14.11 16.4165 14.16 16.3765 14.21C16.1865 14.39 15.9265 14.5 15.6665 14.5Z" fill="#4B5563"/>
<path d="M8.6665 18C8.5365 18 8.4065 17.97 8.2865 17.92C8.1665 17.87 8.0565 17.8 7.9565 17.71C7.7765 17.52 7.6665 17.26 7.6665 17C7.6665 16.87 7.69651 16.74 7.74651 16.62C7.79651 16.49 7.8665 16.38 7.9565 16.29C8.3265 15.92 9.0065 15.92 9.3765 16.29C9.5565 16.48 9.6665 16.74 9.6665 17C9.6665 17.26 9.5565 17.52 9.3765 17.71C9.1865 17.89 8.9265 18 8.6665 18Z" fill="#4B5563"/>
<path d="M12.1665 18C11.9065 18 11.6465 17.89 11.4565 17.71C11.2765 17.52 11.1665 17.26 11.1665 17C11.1665 16.87 11.1965 16.74 11.2465 16.62C11.2965 16.49 11.3665 16.38 11.4565 16.29C11.8265 15.92 12.5065 15.92 12.8765 16.29C12.9665 16.38 13.0365 16.49 13.0865 16.62C13.1365 16.74 13.1665 16.87 13.1665 17C13.1665 17.26 13.0565 17.52 12.8765 17.71C12.6865 17.89 12.4265 18 12.1665 18Z" fill="#4B5563"/>
<path d="M15.6665 18C15.4065 18 15.1465 17.89 14.9565 17.71C14.8665 17.62 14.7965 17.51 14.7465 17.38C14.6965 17.26 14.6665 17.13 14.6665 17C14.6665 16.87 14.6965 16.74 14.7465 16.62C14.7965 16.49 14.8665 16.38 14.9565 16.29C15.1865 16.06 15.5365 15.95 15.8565 16.02C15.9265 16.03 15.9865 16.05 16.0465 16.08C16.1065 16.1 16.1665 16.13 16.2265 16.17C16.2765 16.2 16.3265 16.25 16.3765 16.29C16.5565 16.48 16.6665 16.74 16.6665 17C16.6665 17.26 16.5565 17.52 16.3765 17.71C16.1865 17.89 15.9265 18 15.6665 18Z" fill="#4B5563"/>
<path d="M20.6665 9.83997H3.6665C3.2565 9.83997 2.9165 9.49997 2.9165 9.08997C2.9165 8.67997 3.2565 8.33997 3.6665 8.33997H20.6665C21.0765 8.33997 21.4165 8.67997 21.4165 9.08997C21.4165 9.49997 21.0765 9.83997 20.6665 9.83997Z" fill="#4B5563"/>
<path d="M16.1665 22.75H8.1665C4.5165 22.75 2.4165 20.65 2.4165 17V8.5C2.4165 4.85 4.5165 2.75 8.1665 2.75H16.1665C19.8165 2.75 21.9165 4.85 21.9165 8.5V17C21.9165 20.65 19.8165 22.75 16.1665 22.75ZM8.1665 4.25C5.3065 4.25 3.9165 5.64 3.9165 8.5V17C3.9165 19.86 5.3065 21.25 8.1665 21.25H16.1665C19.0265 21.25 20.4165 19.86 20.4165 17V8.5C20.4165 5.64 19.0265 4.25 16.1665 4.25H8.1665Z" fill="#4B5563"/>
</svg>
