<svg width="25" height="24" viewBox="0 0 25 24" fill="none" xmlns="http://www.w3.org/2000/svg">
<path d="M18.1665 10.25C18.0326 10.25 17.9165 10.1339 17.9165 10V8C17.9165 6.40247 17.6969 4.93455 16.8102 3.8732C15.9065 2.79134 14.4153 2.25 12.1665 2.25C9.91772 2.25 8.42653 2.79134 7.52278 3.8732C6.63615 4.93455 6.4165 6.40247 6.4165 8V10C6.4165 10.1339 6.30036 10.25 6.1665 10.25C6.03265 10.25 5.9165 10.1339 5.9165 10V8C5.9165 6.57122 6.09379 5.01738 6.93183 3.82501C7.74435 2.66893 9.25516 1.75 12.1665 1.75C15.0779 1.75 16.5887 2.66893 17.4012 3.82501C18.2392 5.01738 18.4165 6.57122 18.4165 8V10C18.4165 10.1339 18.3004 10.25 18.1665 10.25Z" fill="#4B5563" stroke="#4B5563"/>
<path d="M17.1665 22.75H7.1665C2.7565 22.75 1.4165 21.41 1.4165 17V15C1.4165 10.59 2.7565 9.25 7.1665 9.25H17.1665C21.5765 9.25 22.9165 10.59 22.9165 15V17C22.9165 21.41 21.5765 22.75 17.1665 22.75ZM7.1665 10.75C3.5865 10.75 2.9165 11.43 2.9165 15V17C2.9165 20.57 3.5865 21.25 7.1665 21.25H17.1665C20.7465 21.25 21.4165 20.57 21.4165 17V15C21.4165 11.43 20.7465 10.75 17.1665 10.75H7.1665Z" fill="#4B5563"/>
<path d="M8.1665 17C8.0365 17 7.9065 16.97 7.7865 16.92C7.6565 16.87 7.55651 16.8 7.45651 16.71C7.27651 16.52 7.1665 16.27 7.1665 16C7.1665 15.87 7.19649 15.74 7.24649 15.62C7.29649 15.49 7.36651 15.39 7.45651 15.29C7.55651 15.2 7.6565 15.13 7.7865 15.08C8.1465 14.92 8.5965 15.01 8.8765 15.29C8.9665 15.39 9.03652 15.5 9.08652 15.62C9.13652 15.74 9.1665 15.87 9.1665 16C9.1665 16.26 9.0565 16.52 8.8765 16.71C8.6865 16.89 8.4265 17 8.1665 17Z" fill="#4B5563"/>
<path d="M12.1665 17C11.9065 17 11.6465 16.89 11.4565 16.71C11.2765 16.52 11.1665 16.27 11.1665 16C11.1665 15.87 11.1865 15.74 11.2465 15.62C11.2965 15.5 11.3665 15.39 11.4565 15.29C11.6865 15.06 12.0365 14.95 12.3565 15.02C12.4265 15.03 12.4865 15.05 12.5465 15.08C12.6065 15.1 12.6665 15.13 12.7265 15.17C12.7765 15.2 12.8265 15.25 12.8765 15.29C12.9665 15.39 13.0365 15.5 13.0865 15.62C13.1365 15.74 13.1665 15.87 13.1665 16C13.1665 16.27 13.0565 16.52 12.8765 16.71C12.8265 16.75 12.7765 16.79 12.7265 16.83C12.6665 16.87 12.6065 16.9 12.5465 16.92C12.4865 16.95 12.4265 16.97 12.3565 16.98C12.2965 16.99 12.2265 17 12.1665 17Z" fill="#4B5563"/>
<path d="M16.1665 17C15.8965 17 15.6465 16.89 15.4565 16.71C15.3665 16.61 15.2965 16.5 15.2465 16.38C15.1965 16.26 15.1665 16.13 15.1665 16C15.1665 15.74 15.2765 15.48 15.4565 15.29C15.5065 15.25 15.5565 15.21 15.6065 15.17C15.6665 15.13 15.7265 15.1 15.7865 15.08C15.8465 15.05 15.9065 15.03 15.9665 15.02C16.2965 14.95 16.6365 15.06 16.8765 15.29C17.0565 15.48 17.1665 15.73 17.1665 16C17.1665 16.13 17.1365 16.26 17.0865 16.38C17.0365 16.51 16.9665 16.61 16.8765 16.71C16.6865 16.89 16.4265 17 16.1665 17Z" fill="#4B5563"/>
</svg>
