<svg width="25" height="24" viewBox="0 0 25 24" fill="none" xmlns="http://www.w3.org/2000/svg">
<path d="M11.6034 21.2372L11.6018 21.2356L9.89222 19.5461L11.6034 21.2372ZM11.6034 21.2372C12.2878 21.9076 13.3888 21.9076 14.0732 21.2372L14.0747 21.2356M11.6034 21.2372L14.0747 21.2356M14.0747 21.2356L15.7842 19.5461L14.0747 21.2356ZM4.08325 4.96997C4.08325 3.46802 5.32296 2.25 6.83325 2.25H18.8333C20.3421 2.25 21.5833 3.45656 21.5833 4.96997V15.88C21.5833 17.382 20.3435 18.6 18.8333 18.6H18.0833C17.2265 18.6 16.3923 18.9469 15.7847 19.5456L4.08325 4.96997ZM4.08325 4.96997V15.88M4.08325 4.96997V15.88M4.08325 15.88C4.08325 17.3934 5.32443 18.6 6.83325 18.6M4.08325 15.88L6.83325 18.6M6.83325 18.6H7.59326M6.83325 18.6H7.59326M7.59326 18.6C8.44999 18.6 9.28414 18.9469 9.89176 19.5456L7.59326 18.6ZM11.2468 21.5965L11.2447 21.5944L9.53678 19.9065C9.53642 19.9061 9.53606 19.9057 9.5357 19.9054C9.01828 19.3886 8.30998 19.11 7.59326 19.11H6.83325C5.0359 19.11 3.58325 17.6604 3.58325 15.89V4.97998C3.58325 3.20961 5.0359 1.76001 6.83325 1.76001H18.8333C20.6306 1.76001 22.0833 3.20961 22.0833 4.97998V15.89C22.0833 17.6604 20.6306 19.11 18.8333 19.11H18.0732C17.3509 19.11 16.6461 19.4023 16.134 19.9022L16.1318 19.9044L14.4218 21.5944L14.4197 21.5965C13.988 22.0282 13.4072 22.25 12.8333 22.25C12.2593 22.25 11.6785 22.0282 11.2468 21.5965Z" fill="#E54B41" stroke="#E54B41"/>
<path d="M12.8332 10.7501C11.1332 10.7501 9.75317 9.37004 9.75317 7.67004C9.75317 5.97004 11.1332 4.59009 12.8332 4.59009C14.5332 4.59009 15.9132 5.97004 15.9132 7.67004C15.9132 9.37004 14.5332 10.7501 12.8332 10.7501ZM12.8332 6.09009C11.9632 6.09009 11.2532 6.80004 11.2532 7.67004C11.2532 8.54004 11.9632 9.25006 12.8332 9.25006C13.7032 9.25006 14.4132 8.54004 14.4132 7.67004C14.4132 6.80004 13.7032 6.09009 12.8332 6.09009Z" fill="#E54B41"/>
<path d="M16.8333 16.4101C16.4233 16.4101 16.0833 16.0701 16.0833 15.6601C16.0833 14.2801 14.6233 13.1501 12.8333 13.1501C11.0433 13.1501 9.58325 14.2801 9.58325 15.6601C9.58325 16.0701 9.24325 16.4101 8.83325 16.4101C8.42325 16.4101 8.08325 16.0701 8.08325 15.6601C8.08325 13.4501 10.2133 11.6501 12.8333 11.6501C15.4533 11.6501 17.5833 13.4501 17.5833 15.6601C17.5833 16.0701 17.2433 16.4101 16.8333 16.4101Z" fill="#E54B41"/>
</svg>
